<?xml version="1.0" encoding="us-ascii" standalone="no"?><svg xmlns="http://www.w3.org/2000/svg" xmlns:xlink="http://www.w3.org/1999/xlink" contentStyleType="text/css" height="1293px" preserveAspectRatio="none" style="width:1554px;height:1293px;background:#FFFFFF;" version="1.1" viewBox="0 0 1554 1293" width="1554px" zoomAndPan="magnify"><defs/><g><!--cluster bez--><g id="cluster_bez"><path d="M240.5,6 L344.5,6 A3.75,3.75 0 0 1 347,8.5 L354,28.2969 L1506.5,28.2969 A2.5,2.5 0 0 1 1509,30.7969 L1509,653.98 A2.5,2.5 0 0 1 1506.5,656.48 L240.5,656.48 A2.5,2.5 0 0 1 238,653.98 L238,8.5 A2.5,2.5 0 0 1 240.5,6 " fill="none" style="stroke:#000000;stroke-width:1.5;"/><line style="stroke:#000000;stroke-width:1.5;" x1="238" x2="354" y1="28.2969" y2="28.2969"/><text fill="#000000" font-family="sans-serif" font-size="14" font-weight="bold" lengthAdjust="spacing" textLength="103" x="242" y="20.9951">Beziehungen</text></g><!--cluster Topic Auftr?ge--><g id="cluster_Topic Auftr&#228;ge"><path d="M865.5,49 L983.5,49 A3.75,3.75 0 0 1 986,51.5 L993,71.2969 L1332.5,71.2969 A2.5,2.5 0 0 1 1335,73.7969 L1335,253.5 A2.5,2.5 0 0 1 1332.5,256 L865.5,256 A2.5,2.5 0 0 1 863,253.5 L863,51.5 A2.5,2.5 0 0 1 865.5,49 " fill="none" style="stroke:#000000;stroke-width:1.5;"/><line style="stroke:#000000;stroke-width:1.5;" x1="863" x2="993" y1="71.2969" y2="71.2969"/><text fill="#000000" font-family="sans-serif" font-size="14" font-weight="bold" lengthAdjust="spacing" textLength="117" x="867" y="63.9951">Topic Auftr&#228;ge</text></g><!--cluster Topic Befunde--><g id="cluster_Topic Befunde"><path d="M264.5,280 L379.5,280 A3.75,3.75 0 0 1 382,282.5 L389,302.2969 L1482.5,302.2969 A2.5,2.5 0 0 1 1485,304.7969 L1485,629.98 A2.5,2.5 0 0 1 1482.5,632.48 L264.5,632.48 A2.5,2.5 0 0 1 262,629.98 L262,282.5 A2.5,2.5 0 0 1 264.5,280 " fill="none" style="stroke:#000000;stroke-width:1.5;"/><line style="stroke:#000000;stroke-width:1.5;" x1="262" x2="389" y1="302.2969" y2="302.2969"/><text fill="#000000" font-family="sans-serif" font-size="14" font-weight="bold" lengthAdjust="spacing" textLength="114" x="266" y="294.9951">Topic Befunde</text></g><!--cluster ext--><g id="cluster_ext"><path d="M8.5,680.48 L114.5,680.48 A3.75,3.75 0 0 1 117,682.98 L124,702.7769 L1544.5,702.7769 A2.5,2.5 0 0 1 1547,705.2769 L1547,1283.95 A2.5,2.5 0 0 1 1544.5,1286.45 L8.5,1286.45 A2.5,2.5 0 0 1 6,1283.95 L6,682.98 A2.5,2.5 0 0 1 8.5,680.48 " fill="none" style="stroke:#000000;stroke-width:1.5;"/><line style="stroke:#000000;stroke-width:1.5;" x1="6" x2="124" y1="702.7769" y2="702.7769"/><text fill="#000000" font-family="sans-serif" font-size="14" font-weight="bold" lengthAdjust="spacing" textLength="105" x="10" y="695.4751">Vererbungen</text></g><!--class ar--><g id="elem_ar"><rect codeLine="3" fill="#F1F1F1" height="48" id="ar" rx="2.5" ry="2.5" style="stroke:#181818;stroke-width:0.5;" width="69" x="896.5" y="84"/><ellipse cx="911.5" cy="100" fill="#ADD1B2" rx="11" ry="11" style="stroke:#181818;stroke-width:1.0;"/><path d="M914.4688,105.6406 Q913.8906,105.9375 913.25,106.0781 Q912.6094,106.2344 911.9063,106.2344 Q909.4063,106.2344 908.0781,104.5938 Q906.7656,102.9375 906.7656,99.8125 Q906.7656,96.6875 908.0781,95.0313 Q909.4063,93.375 911.9063,93.375 Q912.6094,93.375 913.25,93.5313 Q913.9063,93.6875 914.4688,93.9844 L914.4688,96.7031 Q913.8438,96.125 913.25,95.8594 Q912.6563,95.5781 912.0313,95.5781 Q910.6875,95.5781 910,96.6563 Q909.3125,97.7188 909.3125,99.8125 Q909.3125,101.9063 910,102.9844 Q910.6875,104.0469 912.0313,104.0469 Q912.6563,104.0469 913.25,103.7813 Q913.8438,103.5 914.4688,102.9219 L914.4688,105.6406 Z " fill="#000000"/><text fill="#000000" font-family="sans-serif" font-size="14" lengthAdjust="spacing" textLength="37" x="925.5" y="104.8467">Autor</text><line style="stroke:#181818;stroke-width:0.5;" x1="897.5" x2="964.5" y1="116" y2="116"/><line style="stroke:#181818;stroke-width:0.5;" x1="897.5" x2="964.5" y1="124" y2="124"/></g><!--class at--><g id="elem_at"><rect codeLine="4" fill="#F1F1F1" height="48" id="at" rx="2.5" ry="2.5" style="stroke:#181818;stroke-width:0.5;" width="81" x="1118.5" y="84"/><ellipse cx="1133.5" cy="100" fill="#ADD1B2" rx="11" ry="11" style="stroke:#181818;stroke-width:1.0;"/><path d="M1136.4688,105.6406 Q1135.8906,105.9375 1135.25,106.0781 Q1134.6094,106.2344 1133.9063,106.2344 Q1131.4063,106.2344 1130.0781,104.5938 Q1128.7656,102.9375 1128.7656,99.8125 Q1128.7656,96.6875 1130.0781,95.0313 Q1131.4063,93.375 1133.9063,93.375 Q1134.6094,93.375 1135.25,93.5313 Q1135.9063,93.6875 1136.4688,93.9844 L1136.4688,96.7031 Q1135.8438,96.125 1135.25,95.8594 Q1134.6563,95.5781 1134.0313,95.5781 Q1132.6875,95.5781 1132,96.6563 Q1131.3125,97.7188 1131.3125,99.8125 Q1131.3125,101.9063 1132,102.9844 Q1132.6875,104.0469 1134.0313,104.0469 Q1134.6563,104.0469 1135.25,103.7813 Q1135.8438,103.5 1136.4688,102.9219 L1136.4688,105.6406 Z " fill="#000000"/><text fill="#000000" font-family="sans-serif" font-size="14" lengthAdjust="spacing" textLength="49" x="1147.5" y="104.8467">Auftrag</text><line style="stroke:#181818;stroke-width:0.5;" x1="1119.5" x2="1198.5" y1="116" y2="116"/><line style="stroke:#181818;stroke-width:0.5;" x1="1119.5" x2="1198.5" y1="124" y2="124"/></g><!--class b--><g id="elem_b"><rect codeLine="5" fill="#F1F1F1" height="48" id="b" rx="2.5" ry="2.5" style="stroke:#181818;stroke-width:0.5;" width="81" x="1237.5" y="192"/><ellipse cx="1252.5" cy="208" fill="#ADD1B2" rx="11" ry="11" style="stroke:#181818;stroke-width:1.0;"/><path d="M1255.4688,213.6406 Q1254.8906,213.9375 1254.25,214.0781 Q1253.6094,214.2344 1252.9063,214.2344 Q1250.4063,214.2344 1249.0781,212.5938 Q1247.7656,210.9375 1247.7656,207.8125 Q1247.7656,204.6875 1249.0781,203.0313 Q1250.4063,201.375 1252.9063,201.375 Q1253.6094,201.375 1254.25,201.5313 Q1254.9063,201.6875 1255.4688,201.9844 L1255.4688,204.7031 Q1254.8438,204.125 1254.25,203.8594 Q1253.6563,203.5781 1253.0313,203.5781 Q1251.6875,203.5781 1251,204.6563 Q1250.3125,205.7188 1250.3125,207.8125 Q1250.3125,209.9063 1251,210.9844 Q1251.6875,212.0469 1253.0313,212.0469 Q1253.6563,212.0469 1254.25,211.7813 Q1254.8438,211.5 1255.4688,210.9219 L1255.4688,213.6406 Z " fill="#000000"/><text fill="#000000" font-family="sans-serif" font-size="14" lengthAdjust="spacing" textLength="49" x="1266.5" y="212.8467">Bericht</text><line style="stroke:#181818;stroke-width:0.5;" x1="1238.5" x2="1317.5" y1="224" y2="224"/><line style="stroke:#181818;stroke-width:0.5;" x1="1238.5" x2="1317.5" y1="232" y2="232"/></g><!--class ta--><g id="elem_ta"><rect codeLine="6" fill="#F1F1F1" height="48" id="ta" rx="2.5" ry="2.5" style="stroke:#181818;stroke-width:0.5;" width="104" x="879" y="192"/><ellipse cx="894" cy="208" fill="#ADD1B2" rx="11" ry="11" style="stroke:#181818;stroke-width:1.0;"/><path d="M896.9688,213.6406 Q896.3906,213.9375 895.75,214.0781 Q895.1094,214.2344 894.4063,214.2344 Q891.9063,214.2344 890.5781,212.5938 Q889.2656,210.9375 889.2656,207.8125 Q889.2656,204.6875 890.5781,203.0313 Q891.9063,201.375 894.4063,201.375 Q895.1094,201.375 895.75,201.5313 Q896.4063,201.6875 896.9688,201.9844 L896.9688,204.7031 Q896.3438,204.125 895.75,203.8594 Q895.1563,203.5781 894.5313,203.5781 Q893.1875,203.5781 892.5,204.6563 Q891.8125,205.7188 891.8125,207.8125 Q891.8125,209.9063 892.5,210.9844 Q893.1875,212.0469 894.5313,212.0469 Q895.1563,212.0469 895.75,211.7813 Q896.3438,211.5 896.9688,210.9219 L896.9688,213.6406 Z " fill="#000000"/><text fill="#000000" font-family="sans-serif" font-size="14" lengthAdjust="spacing" textLength="72" x="908" y="212.8467">Teilauftrag</text><line style="stroke:#181818;stroke-width:0.5;" x1="880" x2="982" y1="224" y2="224"/><line style="stroke:#181818;stroke-width:0.5;" x1="880" x2="982" y1="232" y2="232"/></g><!--class ap--><g id="elem_ap"><rect codeLine="7" fill="#F1F1F1" height="48" id="ap" rx="2.5" ry="2.5" style="stroke:#181818;stroke-width:0.5;" width="185" x="1017.5" y="192"/><ellipse cx="1032.5" cy="208" fill="#ADD1B2" rx="11" ry="11" style="stroke:#181818;stroke-width:1.0;"/><path d="M1035.4688,213.6406 Q1034.8906,213.9375 1034.25,214.0781 Q1033.6094,214.2344 1032.9063,214.2344 Q1030.4063,214.2344 1029.0781,212.5938 Q1027.7656,210.9375 1027.7656,207.8125 Q1027.7656,204.6875 1029.0781,203.0313 Q1030.4063,201.375 1032.9063,201.375 Q1033.6094,201.375 1034.25,201.5313 Q1034.9063,201.6875 1035.4688,201.9844 L1035.4688,204.7031 Q1034.8438,204.125 1034.25,203.8594 Q1033.6563,203.5781 1033.0313,203.5781 Q1031.6875,203.5781 1031,204.6563 Q1030.3125,205.7188 1030.3125,207.8125 Q1030.3125,209.9063 1031,210.9844 Q1031.6875,212.0469 1033.0313,212.0469 Q1033.6563,212.0469 1034.25,211.7813 Q1034.8438,211.5 1035.4688,210.9219 L1035.4688,213.6406 Z " fill="#000000"/><text fill="#000000" font-family="sans-serif" font-size="14" lengthAdjust="spacing" textLength="153" x="1046.5" y="212.8467">Abklaerungsperimeter</text><line style="stroke:#181818;stroke-width:0.5;" x1="1018.5" x2="1201.5" y1="224" y2="224"/><line style="stroke:#181818;stroke-width:0.5;" x1="1018.5" x2="1201.5" y1="232" y2="232"/></g><!--class pq--><g id="elem_pq"><rect codeLine="16" fill="#F1F1F1" height="48" id="pq" rx="2.5" ry="2.5" style="stroke:#181818;stroke-width:0.5;" width="130" x="866" y="315"/><ellipse cx="881" cy="331" fill="#ADD1B2" rx="11" ry="11" style="stroke:#181818;stroke-width:1.0;"/><path d="M883.9688,336.6406 Q883.3906,336.9375 882.75,337.0781 Q882.1094,337.2344 881.4063,337.2344 Q878.9063,337.2344 877.5781,335.5938 Q876.2656,333.9375 876.2656,330.8125 Q876.2656,327.6875 877.5781,326.0313 Q878.9063,324.375 881.4063,324.375 Q882.1094,324.375 882.75,324.5313 Q883.4063,324.6875 883.9688,324.9844 L883.9688,327.7031 Q883.3438,327.125 882.75,326.8594 Q882.1563,326.5781 881.5313,326.5781 Q880.1875,326.5781 879.5,327.6563 Q878.8125,328.7188 878.8125,330.8125 Q878.8125,332.9063 879.5,333.9844 Q880.1875,335.0469 881.5313,335.0469 Q882.1563,335.0469 882.75,334.7813 Q883.3438,334.5 883.9688,333.9219 L883.9688,336.6406 Z " fill="#000000"/><text fill="#000000" font-family="sans-serif" font-size="14" lengthAdjust="spacing" textLength="98" x="895" y="335.8467">Prozessquelle</text><line style="stroke:#181818;stroke-width:0.5;" x1="867" x2="995" y1="347" y2="347"/><line style="stroke:#181818;stroke-width:0.5;" x1="867" x2="995" y1="355" y2="355"/></g><!--class psb--><g id="elem_psb"><rect codeLine="17" fill="#F1F1F1" height="58.5938" id="psb" rx="2.5" ry="2.5" style="stroke:#181818;stroke-width:0.5;" width="150" x="278" y="423"/><ellipse cx="293" cy="444.2969" fill="#ADD1B2" rx="11" ry="11" style="stroke:#181818;stroke-width:1.0;"/><path d="M295.9688,449.9375 Q295.3906,450.2344 294.75,450.375 Q294.1094,450.5313 293.4063,450.5313 Q290.9063,450.5313 289.5781,448.8906 Q288.2656,447.2344 288.2656,444.1094 Q288.2656,440.9844 289.5781,439.3281 Q290.9063,437.6719 293.4063,437.6719 Q294.1094,437.6719 294.75,437.8281 Q295.4063,437.9844 295.9688,438.2813 L295.9688,441 Q295.3438,440.4219 294.75,440.1563 Q294.1563,439.875 293.5313,439.875 Q292.1875,439.875 291.5,440.9531 Q290.8125,442.0156 290.8125,444.1094 Q290.8125,446.2031 291.5,447.2813 Q292.1875,448.3438 293.5313,448.3438 Q294.1563,448.3438 294.75,448.0781 Q295.3438,447.7969 295.9688,447.2188 L295.9688,449.9375 Z " fill="#000000"/><text fill="#000000" font-family="sans-serif" font-size="14" lengthAdjust="spacing" textLength="116" x="308" y="440.9951">PQ_Jaehrlichkeit_</text><text fill="#000000" font-family="sans-serif" font-size="14" lengthAdjust="spacing" textLength="118" x="307" y="457.292">SteinBlockschlag</text><line style="stroke:#181818;stroke-width:0.5;" x1="279" x2="427" y1="465.5938" y2="465.5938"/><line style="stroke:#181818;stroke-width:0.5;" x1="279" x2="427" y1="473.5938" y2="473.5938"/></g><!--class pbf--><g id="elem_pbf"><rect codeLine="18" fill="#F1F1F1" height="58.5938" id="pbf" rx="2.5" ry="2.5" style="stroke:#181818;stroke-width:0.5;" width="148" x="463" y="423"/><ellipse cx="478" cy="444.2969" fill="#ADD1B2" rx="11" ry="11" style="stroke:#181818;stroke-width:1.0;"/><path d="M480.9688,449.9375 Q480.3906,450.2344 479.75,450.375 Q479.1094,450.5313 478.4063,450.5313 Q475.9063,450.5313 474.5781,448.8906 Q473.2656,447.2344 473.2656,444.1094 Q473.2656,440.9844 474.5781,439.3281 Q475.9063,437.6719 478.4063,437.6719 Q479.1094,437.6719 479.75,437.8281 Q480.4063,437.9844 480.9688,438.2813 L480.9688,441 Q480.3438,440.4219 479.75,440.1563 Q479.1563,439.875 478.5313,439.875 Q477.1875,439.875 476.5,440.9531 Q475.8125,442.0156 475.8125,444.1094 Q475.8125,446.2031 476.5,447.2813 Q477.1875,448.3438 478.5313,448.3438 Q479.1563,448.3438 479.75,448.0781 Q480.3438,447.7969 480.9688,447.2188 L480.9688,449.9375 Z " fill="#000000"/><text fill="#000000" font-family="sans-serif" font-size="14" lengthAdjust="spacing" textLength="116" x="492" y="440.9951">PQ_Jaehrlichkeit_</text><text fill="#000000" font-family="sans-serif" font-size="14" lengthAdjust="spacing" textLength="96" x="502" y="457.292">BergFelssturz</text><line style="stroke:#181818;stroke-width:0.5;" x1="464" x2="610" y1="465.5938" y2="465.5938"/><line style="stroke:#181818;stroke-width:0.5;" x1="464" x2="610" y1="473.5938" y2="473.5938"/></g><!--class psr--><g id="elem_psr"><rect codeLine="19" fill="#F1F1F1" height="58.5938" id="psr" rx="2.5" ry="2.5" style="stroke:#181818;stroke-width:0.5;" width="175" x="646.5" y="423"/><ellipse cx="661.5" cy="444.2969" fill="#ADD1B2" rx="11" ry="11" style="stroke:#181818;stroke-width:1.0;"/><path d="M664.4688,449.9375 Q663.8906,450.2344 663.25,450.375 Q662.6094,450.5313 661.9063,450.5313 Q659.4063,450.5313 658.0781,448.8906 Q656.7656,447.2344 656.7656,444.1094 Q656.7656,440.9844 658.0781,439.3281 Q659.4063,437.6719 661.9063,437.6719 Q662.6094,437.6719 663.25,437.8281 Q663.9063,437.9844 664.4688,438.2813 L664.4688,441 Q663.8438,440.4219 663.25,440.1563 Q662.6563,439.875 662.0313,439.875 Q660.6875,439.875 660,440.9531 Q659.3125,442.0156 659.3125,444.1094 Q659.3125,446.2031 660,447.2813 Q660.6875,448.3438 662.0313,448.3438 Q662.6563,448.3438 663.25,448.0781 Q663.8438,447.7969 664.4688,447.2188 L664.4688,449.9375 Z " fill="#000000"/><text fill="#000000" font-family="sans-serif" font-size="14" lengthAdjust="spacing" textLength="116" x="689" y="440.9951">PQ_Jaehrlichkeit_</text><text fill="#000000" font-family="sans-serif" font-size="14" lengthAdjust="spacing" textLength="143" x="675.5" y="457.292">SpontaneRutschung</text><line style="stroke:#181818;stroke-width:0.5;" x1="647.5" x2="820.5" y1="465.5938" y2="465.5938"/><line style="stroke:#181818;stroke-width:0.5;" x1="647.5" x2="820.5" y1="473.5938" y2="473.5938"/></g><!--class phm--><g id="elem_phm"><rect codeLine="20" fill="#F1F1F1" height="58.5938" id="phm" rx="2.5" ry="2.5" style="stroke:#181818;stroke-width:0.5;" width="148" x="857" y="423"/><ellipse cx="872" cy="444.2969" fill="#ADD1B2" rx="11" ry="11" style="stroke:#181818;stroke-width:1.0;"/><path d="M874.9688,449.9375 Q874.3906,450.2344 873.75,450.375 Q873.1094,450.5313 872.4063,450.5313 Q869.9063,450.5313 868.5781,448.8906 Q867.2656,447.2344 867.2656,444.1094 Q867.2656,440.9844 868.5781,439.3281 Q869.9063,437.6719 872.4063,437.6719 Q873.1094,437.6719 873.75,437.8281 Q874.4063,437.9844 874.9688,438.2813 L874.9688,441 Q874.3438,440.4219 873.75,440.1563 Q873.1563,439.875 872.5313,439.875 Q871.1875,439.875 870.5,440.9531 Q869.8125,442.0156 869.8125,444.1094 Q869.8125,446.2031 870.5,447.2813 Q871.1875,448.3438 872.5313,448.3438 Q873.1563,448.3438 873.75,448.0781 Q874.3438,447.7969 874.9688,447.2188 L874.9688,449.9375 Z " fill="#000000"/><text fill="#000000" font-family="sans-serif" font-size="14" lengthAdjust="spacing" textLength="116" x="886" y="440.9951">PQ_Jaehrlichkeit_</text><text fill="#000000" font-family="sans-serif" font-size="14" lengthAdjust="spacing" textLength="72" x="908" y="457.292">Hangmure</text><line style="stroke:#181818;stroke-width:0.5;" x1="858" x2="1004" y1="465.5938" y2="465.5938"/><line style="stroke:#181818;stroke-width:0.5;" x1="858" x2="1004" y1="473.5938" y2="473.5938"/></g><!--class ktp--><g id="elem_ktp"><rect codeLine="21" fill="#F1F1F1" height="58.5938" id="ktp" rx="2.5" ry="2.5" style="stroke:#181818;stroke-width:0.5;" width="105" x="1040.5" y="423"/><ellipse cx="1055.5" cy="444.2969" fill="#ADD1B2" rx="11" ry="11" style="stroke:#181818;stroke-width:1.0;"/><path d="M1058.4688,449.9375 Q1057.8906,450.2344 1057.25,450.375 Q1056.6094,450.5313 1055.9063,450.5313 Q1053.4063,450.5313 1052.0781,448.8906 Q1050.7656,447.2344 1050.7656,444.1094 Q1050.7656,440.9844 1052.0781,439.3281 Q1053.4063,437.6719 1055.9063,437.6719 Q1056.6094,437.6719 1057.25,437.8281 Q1057.9063,437.9844 1058.4688,438.2813 L1058.4688,441 Q1057.8438,440.4219 1057.25,440.1563 Q1056.6563,439.875 1056.0313,439.875 Q1054.6875,439.875 1054,440.9531 Q1053.3125,442.0156 1053.3125,444.1094 Q1053.3125,446.2031 1054,447.2813 Q1054.6875,448.3438 1056.0313,448.3438 Q1056.6563,448.3438 1057.25,448.0781 Q1057.8438,447.7969 1058.4688,447.2188 L1058.4688,449.9375 Z " fill="#000000"/><text fill="#000000" font-family="sans-serif" font-size="14" lengthAdjust="spacing" textLength="73" x="1069.5" y="440.9951">Kennwert_</text><text fill="#000000" font-family="sans-serif" font-size="14" lengthAdjust="spacing" textLength="50" x="1081" y="457.292">TextPQ</text><line style="stroke:#181818;stroke-width:0.5;" x1="1041.5" x2="1144.5" y1="465.5938" y2="465.5938"/><line style="stroke:#181818;stroke-width:0.5;" x1="1041.5" x2="1144.5" y1="473.5938" y2="473.5938"/></g><!--class btp--><g id="elem_btp"><rect codeLine="22" fill="#F1F1F1" height="58.5938" id="btp" rx="2.5" ry="2.5" style="stroke:#181818;stroke-width:0.5;" width="89" x="1180.5" y="423"/><ellipse cx="1195.5" cy="444.2969" fill="#ADD1B2" rx="11" ry="11" style="stroke:#181818;stroke-width:1.0;"/><path d="M1198.4688,449.9375 Q1197.8906,450.2344 1197.25,450.375 Q1196.6094,450.5313 1195.9063,450.5313 Q1193.4063,450.5313 1192.0781,448.8906 Q1190.7656,447.2344 1190.7656,444.1094 Q1190.7656,440.9844 1192.0781,439.3281 Q1193.4063,437.6719 1195.9063,437.6719 Q1196.6094,437.6719 1197.25,437.8281 Q1197.9063,437.9844 1198.4688,438.2813 L1198.4688,441 Q1197.8438,440.4219 1197.25,440.1563 Q1196.6563,439.875 1196.0313,439.875 Q1194.6875,439.875 1194,440.9531 Q1193.3125,442.0156 1193.3125,444.1094 Q1193.3125,446.2031 1194,447.2813 Q1194.6875,448.3438 1196.0313,448.3438 Q1196.6563,448.3438 1197.25,448.0781 Q1197.8438,447.7969 1198.4688,447.2188 L1198.4688,449.9375 Z " fill="#000000"/><text fill="#000000" font-family="sans-serif" font-size="14" lengthAdjust="spacing" textLength="57" x="1209.5" y="440.9951">Befund_</text><text fill="#000000" font-family="sans-serif" font-size="14" lengthAdjust="spacing" textLength="50" x="1213" y="457.292">TextPQ</text><line style="stroke:#181818;stroke-width:0.5;" x1="1181.5" x2="1268.5" y1="465.5938" y2="465.5938"/><line style="stroke:#181818;stroke-width:0.5;" x1="1181.5" x2="1268.5" y1="473.5938" y2="473.5938"/></g><!--class bsb--><g id="elem_bsb"><rect codeLine="23" fill="#F1F1F1" height="58.5938" id="bsb" rx="2.5" ry="2.5" style="stroke:#181818;stroke-width:0.5;" width="150" x="278" y="549.74"/><ellipse cx="293" cy="571.0369" fill="#ADD1B2" rx="11" ry="11" style="stroke:#181818;stroke-width:1.0;"/><path d="M295.9688,576.6775 Q295.3906,576.9744 294.75,577.115 Q294.1094,577.2713 293.4063,577.2713 Q290.9063,577.2713 289.5781,575.6306 Q288.2656,573.9744 288.2656,570.8494 Q288.2656,567.7244 289.5781,566.0681 Q290.9063,564.4119 293.4063,564.4119 Q294.1094,564.4119 294.75,564.5681 Q295.4063,564.7244 295.9688,565.0213 L295.9688,567.74 Q295.3438,567.1619 294.75,566.8963 Q294.1563,566.615 293.5313,566.615 Q292.1875,566.615 291.5,567.6931 Q290.8125,568.7556 290.8125,570.8494 Q290.8125,572.9431 291.5,574.0213 Q292.1875,575.0838 293.5313,575.0838 Q294.1563,575.0838 294.75,574.8181 Q295.3438,574.5369 295.9688,573.9588 L295.9688,576.6775 Z " fill="#000000"/><text fill="#000000" font-family="sans-serif" font-size="14" lengthAdjust="spacing" textLength="50" x="341" y="567.7351">Befund</text><text fill="#000000" font-family="sans-serif" font-size="14" lengthAdjust="spacing" textLength="118" x="307" y="584.032">SteinBlockschlag</text><line style="stroke:#181818;stroke-width:0.5;" x1="279" x2="427" y1="592.3338" y2="592.3338"/><line style="stroke:#181818;stroke-width:0.5;" x1="279" x2="427" y1="600.3338" y2="600.3338"/></g><!--class bbf--><g id="elem_bbf"><rect codeLine="24" fill="#F1F1F1" height="48" id="bbf" rx="2.5" ry="2.5" style="stroke:#181818;stroke-width:0.5;" width="178" x="463" y="555.04"/><ellipse cx="478" cy="571.04" fill="#ADD1B2" rx="11" ry="11" style="stroke:#181818;stroke-width:1.0;"/><path d="M480.9688,576.6806 Q480.3906,576.9775 479.75,577.1181 Q479.1094,577.2744 478.4063,577.2744 Q475.9063,577.2744 474.5781,575.6338 Q473.2656,573.9775 473.2656,570.8525 Q473.2656,567.7275 474.5781,566.0713 Q475.9063,564.415 478.4063,564.415 Q479.1094,564.415 479.75,564.5713 Q480.4063,564.7275 480.9688,565.0244 L480.9688,567.7431 Q480.3438,567.165 479.75,566.8994 Q479.1563,566.6181 478.5313,566.6181 Q477.1875,566.6181 476.5,567.6963 Q475.8125,568.7588 475.8125,570.8525 Q475.8125,572.9463 476.5,574.0244 Q477.1875,575.0869 478.5313,575.0869 Q479.1563,575.0869 479.75,574.8213 Q480.3438,574.54 480.9688,573.9619 L480.9688,576.6806 Z " fill="#000000"/><text fill="#000000" font-family="sans-serif" font-size="14" lengthAdjust="spacing" textLength="146" x="492" y="575.8867">BefundBergFelssturz</text><line style="stroke:#181818;stroke-width:0.5;" x1="464" x2="640" y1="587.04" y2="587.04"/><line style="stroke:#181818;stroke-width:0.5;" x1="464" x2="640" y1="595.04" y2="595.04"/></g><!--class bhm--><g id="elem_bhm"><rect codeLine="25" fill="#F1F1F1" height="48" id="bhm" rx="2.5" ry="2.5" style="stroke:#181818;stroke-width:0.5;" width="154" x="854" y="555.04"/><ellipse cx="869" cy="571.04" fill="#ADD1B2" rx="11" ry="11" style="stroke:#181818;stroke-width:1.0;"/><path d="M871.9688,576.6806 Q871.3906,576.9775 870.75,577.1181 Q870.1094,577.2744 869.4063,577.2744 Q866.9063,577.2744 865.5781,575.6338 Q864.2656,573.9775 864.2656,570.8525 Q864.2656,567.7275 865.5781,566.0713 Q866.9063,564.415 869.4063,564.415 Q870.1094,564.415 870.75,564.5713 Q871.4063,564.7275 871.9688,565.0244 L871.9688,567.7431 Q871.3438,567.165 870.75,566.8994 Q870.1563,566.6181 869.5313,566.6181 Q868.1875,566.6181 867.5,567.6963 Q866.8125,568.7588 866.8125,570.8525 Q866.8125,572.9463 867.5,574.0244 Q868.1875,575.0869 869.5313,575.0869 Q870.1563,575.0869 870.75,574.8213 Q871.3438,574.54 871.9688,573.9619 L871.9688,576.6806 Z " fill="#000000"/><text fill="#000000" font-family="sans-serif" font-size="14" lengthAdjust="spacing" textLength="122" x="883" y="575.8867">BefundHangmure</text><line style="stroke:#181818;stroke-width:0.5;" x1="855" x2="1007" y1="587.04" y2="587.04"/><line style="stroke:#181818;stroke-width:0.5;" x1="855" x2="1007" y1="595.04" y2="595.04"/></g><!--class bsr--><g id="elem_bsr"><rect codeLine="26" fill="#F1F1F1" height="74.8906" id="bsr" rx="2.5" ry="2.5" style="stroke:#181818;stroke-width:0.5;" width="108" x="680" y="541.59"/><ellipse cx="695" cy="571.0353" fill="#ADD1B2" rx="11" ry="11" style="stroke:#181818;stroke-width:1.0;"/><path d="M697.9688,576.6759 Q697.3906,576.9728 696.75,577.1134 Q696.1094,577.2697 695.4063,577.2697 Q692.9063,577.2697 691.5781,575.6291 Q690.2656,573.9728 690.2656,570.8478 Q690.2656,567.7228 691.5781,566.0666 Q692.9063,564.4103 695.4063,564.4103 Q696.1094,564.4103 696.75,564.5666 Q697.4063,564.7228 697.9688,565.0197 L697.9688,567.7384 Q697.3438,567.1603 696.75,566.8947 Q696.1563,566.6134 695.5313,566.6134 Q694.1875,566.6134 693.5,567.6916 Q692.8125,568.7541 692.8125,570.8478 Q692.8125,572.9416 693.5,574.0197 Q694.1875,575.0822 695.5313,575.0822 Q696.1563,575.0822 696.75,574.8166 Q697.3438,574.5353 697.9688,573.9572 L697.9688,576.6759 Z " fill="#000000"/><text fill="#000000" font-family="sans-serif" font-size="14" lengthAdjust="spacing" textLength="50" x="722" y="559.5851">Befund</text><text fill="#000000" font-family="sans-serif" font-size="14" lengthAdjust="spacing" textLength="67" x="713.5" y="575.882">Spontane</text><text fill="#000000" font-family="sans-serif" font-size="14" lengthAdjust="spacing" textLength="76" x="709" y="592.1789">Rutschung</text><line style="stroke:#181818;stroke-width:0.5;" x1="681" x2="787" y1="600.4806" y2="600.4806"/><line style="stroke:#181818;stroke-width:0.5;" x1="681" x2="787" y1="608.4806" y2="608.4806"/></g><!--class fl--><g id="elem_fl"><rect codeLine="27" fill="#F1F1F1" height="48" id="fl" rx="2.5" ry="2.5" style="stroke:#181818;stroke-width:0.5;" width="164" x="1305" y="428.29"/><ellipse cx="1320" cy="444.29" fill="#ADD1B2" rx="11" ry="11" style="stroke:#181818;stroke-width:1.0;"/><path d="M1322.9688,449.9306 Q1322.3906,450.2275 1321.75,450.3681 Q1321.1094,450.5244 1320.4063,450.5244 Q1317.9063,450.5244 1316.5781,448.8838 Q1315.2656,447.2275 1315.2656,444.1025 Q1315.2656,440.9775 1316.5781,439.3213 Q1317.9063,437.665 1320.4063,437.665 Q1321.1094,437.665 1321.75,437.8213 Q1322.4063,437.9775 1322.9688,438.2744 L1322.9688,440.9931 Q1322.3438,440.415 1321.75,440.1494 Q1321.1563,439.8681 1320.5313,439.8681 Q1319.1875,439.8681 1318.5,440.9463 Q1317.8125,442.0088 1317.8125,444.1025 Q1317.8125,446.1963 1318.5,447.2744 Q1319.1875,448.3369 1320.5313,448.3369 Q1321.1563,448.3369 1321.75,448.0713 Q1322.3438,447.79 1322.9688,447.2119 L1322.9688,449.9306 Z " fill="#000000"/><text fill="#000000" font-family="sans-serif" font-size="14" lengthAdjust="spacing" textLength="132" x="1334" y="449.1367">Fliessrichtungspfeil</text><line style="stroke:#181818;stroke-width:0.5;" x1="1306" x2="1468" y1="460.29" y2="460.29"/><line style="stroke:#181818;stroke-width:0.5;" x1="1306" x2="1468" y1="468.29" y2="468.29"/></g><!--class psr_--><g id="elem_psr_"><rect codeLine="48" fill="#F1F1F1" height="58.5938" id="psr_" rx="2.5" ry="2.5" style="stroke:#181818;stroke-width:0.5;" width="175" x="22.5" y="834.07"/><ellipse cx="37.5" cy="855.3669" fill="#ADD1B2" rx="11" ry="11" style="stroke:#181818;stroke-width:1.0;"/><path d="M40.4688,861.0075 Q39.8906,861.3044 39.25,861.445 Q38.6094,861.6013 37.9063,861.6013 Q35.4063,861.6013 34.0781,859.9606 Q32.7656,858.3044 32.7656,855.1794 Q32.7656,852.0544 34.0781,850.3981 Q35.4063,848.7419 37.9063,848.7419 Q38.6094,848.7419 39.25,848.8981 Q39.9063,849.0544 40.4688,849.3513 L40.4688,852.07 Q39.8438,851.4919 39.25,851.2263 Q38.6563,850.945 38.0313,850.945 Q36.6875,850.945 36,852.0231 Q35.3125,853.0856 35.3125,855.1794 Q35.3125,857.2731 36,858.3513 Q36.6875,859.4138 38.0313,859.4138 Q38.6563,859.4138 39.25,859.1481 Q39.8438,858.8669 40.4688,858.2888 L40.4688,861.0075 Z " fill="#000000"/><text fill="#000000" font-family="sans-serif" font-size="14" lengthAdjust="spacing" textLength="116" x="65" y="852.0651">PQ_Jaehrlichkeit_</text><text fill="#000000" font-family="sans-serif" font-size="14" lengthAdjust="spacing" textLength="143" x="51.5" y="868.362">SpontaneRutschung</text><line style="stroke:#181818;stroke-width:0.5;" x1="23.5" x2="196.5" y1="876.6638" y2="876.6638"/><line style="stroke:#181818;stroke-width:0.5;" x1="23.5" x2="196.5" y1="884.6638" y2="884.6638"/></g><!--class prm_--><g id="elem_prm_"><rect codeLine="49" fill="#F1F1F1" height="58.5938" id="prm_" rx="2.5" ry="2.5" style="stroke:#181818;stroke-width:0.5;" width="165" x="143.5" y="715.48"/><ellipse cx="158.5" cy="736.7769" fill="#ADD1B2" rx="11" ry="11" style="stroke:#181818;stroke-width:1.0;"/><path d="M161.4688,742.4175 Q160.8906,742.7144 160.25,742.855 Q159.6094,743.0113 158.9063,743.0113 Q156.4063,743.0113 155.0781,741.3706 Q153.7656,739.7144 153.7656,736.5894 Q153.7656,733.4644 155.0781,731.8081 Q156.4063,730.1519 158.9063,730.1519 Q159.6094,730.1519 160.25,730.3081 Q160.9063,730.4644 161.4688,730.7613 L161.4688,733.48 Q160.8438,732.9019 160.25,732.6363 Q159.6563,732.355 159.0313,732.355 Q157.6875,732.355 157,733.4331 Q156.3125,734.4956 156.3125,736.5894 Q156.3125,738.6831 157,739.7613 Q157.6875,740.8238 159.0313,740.8238 Q159.6563,740.8238 160.25,740.5581 Q160.8438,740.2769 161.4688,739.6988 L161.4688,742.4175 Z " fill="#000000"/><text fill="#000000" font-family="sans-serif" font-size="14" lengthAdjust="spacing" textLength="116" x="181" y="733.4751">PQ_Jaehrlichkeit_</text><text fill="#000000" font-family="sans-serif" font-size="14" lengthAdjust="spacing" textLength="133" x="172.5" y="749.772">Rutsch_Mure_Base</text><line style="stroke:#181818;stroke-width:0.5;" x1="144.5" x2="307.5" y1="758.0738" y2="758.0738"/><line style="stroke:#181818;stroke-width:0.5;" x1="144.5" x2="307.5" y1="766.0738" y2="766.0738"/></g><!--class phm_--><g id="elem_phm_"><rect codeLine="50" fill="#F1F1F1" height="48" id="phm_" rx="2.5" ry="2.5" style="stroke:#181818;stroke-width:0.5;" width="220" x="233" y="839.37"/><ellipse cx="248" cy="855.37" fill="#ADD1B2" rx="11" ry="11" style="stroke:#181818;stroke-width:1.0;"/><path d="M250.9688,861.0106 Q250.3906,861.3075 249.75,861.4481 Q249.1094,861.6044 248.4063,861.6044 Q245.9063,861.6044 244.5781,859.9638 Q243.2656,858.3075 243.2656,855.1825 Q243.2656,852.0575 244.5781,850.4013 Q245.9063,848.745 248.4063,848.745 Q249.1094,848.745 249.75,848.9013 Q250.4063,849.0575 250.9688,849.3544 L250.9688,852.0731 Q250.3438,851.495 249.75,851.2294 Q249.1563,850.9481 248.5313,850.9481 Q247.1875,850.9481 246.5,852.0263 Q245.8125,853.0888 245.8125,855.1825 Q245.8125,857.2763 246.5,858.3544 Q247.1875,859.4169 248.5313,859.4169 Q249.1563,859.4169 249.75,859.1513 Q250.3438,858.87 250.9688,858.2919 L250.9688,861.0106 Z " fill="#000000"/><text fill="#000000" font-family="sans-serif" font-size="14" lengthAdjust="spacing" textLength="188" x="262" y="860.2167">PQ_Jaehrlichkeit_Hangmure</text><line style="stroke:#181818;stroke-width:0.5;" x1="234" x2="452" y1="871.37" y2="871.37"/><line style="stroke:#181818;stroke-width:0.5;" x1="234" x2="452" y1="879.37" y2="879.37"/></g><!--class bb_--><g id="elem_bb_"><rect codeLine="51" fill="#F1F1F1" height="48" id="bb_" rx="2.5" ry="2.5" style="stroke:#181818;stroke-width:0.5;" width="126" x="868" y="720.78"/><ellipse cx="883" cy="736.78" fill="#ADD1B2" rx="11" ry="11" style="stroke:#181818;stroke-width:1.0;"/><path d="M885.9688,742.4206 Q885.3906,742.7175 884.75,742.8581 Q884.1094,743.0144 883.4063,743.0144 Q880.9063,743.0144 879.5781,741.3738 Q878.2656,739.7175 878.2656,736.5925 Q878.2656,733.4675 879.5781,731.8113 Q880.9063,730.155 883.4063,730.155 Q884.1094,730.155 884.75,730.3113 Q885.4063,730.4675 885.9688,730.7644 L885.9688,733.4831 Q885.3438,732.905 884.75,732.6394 Q884.1563,732.3581 883.5313,732.3581 Q882.1875,732.3581 881.5,733.4363 Q880.8125,734.4988 880.8125,736.5925 Q880.8125,738.6863 881.5,739.7644 Q882.1875,740.8269 883.5313,740.8269 Q884.1563,740.8269 884.75,740.5613 Q885.3438,740.28 885.9688,739.7019 L885.9688,742.4206 Z " fill="#000000"/><text fill="#000000" font-family="sans-serif" font-size="14" lengthAdjust="spacing" textLength="94" x="897" y="741.6267">Befund_Basis</text><line style="stroke:#181818;stroke-width:0.5;" x1="869" x2="993" y1="752.78" y2="752.78"/><line style="stroke:#181818;stroke-width:0.5;" x1="869" x2="993" y1="760.78" y2="760.78"/></g><!--class ktp_--><g id="elem_ktp_"><rect codeLine="52" fill="#F1F1F1" height="48" id="ktp_" rx="2.5" ry="2.5" style="stroke:#181818;stroke-width:0.5;" width="155" x="488.5" y="839.37"/><ellipse cx="503.5" cy="855.37" fill="#ADD1B2" rx="11" ry="11" style="stroke:#181818;stroke-width:1.0;"/><path d="M506.4688,861.0106 Q505.8906,861.3075 505.25,861.4481 Q504.6094,861.6044 503.9063,861.6044 Q501.4063,861.6044 500.0781,859.9638 Q498.7656,858.3075 498.7656,855.1825 Q498.7656,852.0575 500.0781,850.4013 Q501.4063,848.745 503.9063,848.745 Q504.6094,848.745 505.25,848.9013 Q505.9063,849.0575 506.4688,849.3544 L506.4688,852.0731 Q505.8438,851.495 505.25,851.2294 Q504.6563,850.9481 504.0313,850.9481 Q502.6875,850.9481 502,852.0263 Q501.3125,853.0888 501.3125,855.1825 Q501.3125,857.2763 502,858.3544 Q502.6875,859.4169 504.0313,859.4169 Q504.6563,859.4169 505.25,859.1513 Q505.8438,858.87 506.4688,858.2919 L506.4688,861.0106 Z " fill="#000000"/><text fill="#000000" font-family="sans-serif" font-size="14" lengthAdjust="spacing" textLength="123" x="517.5" y="860.2167">Kennwert_TextPQ</text><line style="stroke:#181818;stroke-width:0.5;" x1="489.5" x2="642.5" y1="871.37" y2="871.37"/><line style="stroke:#181818;stroke-width:0.5;" x1="489.5" x2="642.5" y1="879.37" y2="879.37"/></g><!--class btp_--><g id="elem_btp_"><rect codeLine="53" fill="#F1F1F1" height="48" id="btp_" rx="2.5" ry="2.5" style="stroke:#181818;stroke-width:0.5;" width="139" x="761.5" y="1087.56"/><ellipse cx="776.5" cy="1103.56" fill="#ADD1B2" rx="11" ry="11" style="stroke:#181818;stroke-width:1.0;"/><path d="M779.4688,1109.2006 Q778.8906,1109.4975 778.25,1109.6381 Q777.6094,1109.7944 776.9063,1109.7944 Q774.4063,1109.7944 773.0781,1108.1538 Q771.7656,1106.4975 771.7656,1103.3725 Q771.7656,1100.2475 773.0781,1098.5913 Q774.4063,1096.935 776.9063,1096.935 Q777.6094,1096.935 778.25,1097.0913 Q778.9063,1097.2475 779.4688,1097.5444 L779.4688,1100.2631 Q778.8438,1099.685 778.25,1099.4194 Q777.6563,1099.1381 777.0313,1099.1381 Q775.6875,1099.1381 775,1100.2163 Q774.3125,1101.2788 774.3125,1103.3725 Q774.3125,1105.4663 775,1106.5444 Q775.6875,1107.6069 777.0313,1107.6069 Q777.6563,1107.6069 778.25,1107.3413 Q778.8438,1107.06 779.4688,1106.4819 L779.4688,1109.2006 Z " fill="#000000"/><text fill="#000000" font-family="sans-serif" font-size="14" lengthAdjust="spacing" textLength="107" x="790.5" y="1108.4067">Befund_TextPQ</text><line style="stroke:#181818;stroke-width:0.5;" x1="762.5" x2="899.5" y1="1119.56" y2="1119.56"/><line style="stroke:#181818;stroke-width:0.5;" x1="762.5" x2="899.5" y1="1127.56" y2="1127.56"/></g><!--class ba_--><g id="elem_ba_"><rect codeLine="54" fill="#F1F1F1" height="48" id="ba_" rx="2.5" ry="2.5" style="stroke:#181818;stroke-width:0.5;" width="161" x="21.5" y="1209"/><ellipse cx="36.5" cy="1225" fill="#ADD1B2" rx="11" ry="11" style="stroke:#181818;stroke-width:1.0;"/><path d="M39.4688,1230.6406 Q38.8906,1230.9375 38.25,1231.0781 Q37.6094,1231.2344 36.9063,1231.2344 Q34.4063,1231.2344 33.0781,1229.5938 Q31.7656,1227.9375 31.7656,1224.8125 Q31.7656,1221.6875 33.0781,1220.0313 Q34.4063,1218.375 36.9063,1218.375 Q37.6094,1218.375 38.25,1218.5313 Q38.9063,1218.6875 39.4688,1218.9844 L39.4688,1221.7031 Q38.8438,1221.125 38.25,1220.8594 Q37.6563,1220.5781 37.0313,1220.5781 Q35.6875,1220.5781 35,1221.6563 Q34.3125,1222.7188 34.3125,1224.8125 Q34.3125,1226.9063 35,1227.9844 Q35.6875,1229.0469 37.0313,1229.0469 Q37.6563,1229.0469 38.25,1228.7813 Q38.8438,1228.5 39.4688,1227.9219 L39.4688,1230.6406 Z " fill="#000000"/><text fill="#000000" font-family="sans-serif" font-size="14" lengthAdjust="spacing" textLength="129" x="50.5" y="1229.8467">BefundAbsenkung</text><line style="stroke:#181818;stroke-width:0.5;" x1="22.5" x2="181.5" y1="1241" y2="1241"/><line style="stroke:#181818;stroke-width:0.5;" x1="22.5" x2="181.5" y1="1249" y2="1249"/></g><!--class be_--><g id="elem_be_"><rect codeLine="55" fill="#F1F1F1" height="48" id="be_" rx="2.5" ry="2.5" style="stroke:#181818;stroke-width:0.5;" width="138" x="218" y="1209"/><ellipse cx="233" cy="1225" fill="#ADD1B2" rx="11" ry="11" style="stroke:#181818;stroke-width:1.0;"/><path d="M235.9688,1230.6406 Q235.3906,1230.9375 234.75,1231.0781 Q234.1094,1231.2344 233.4063,1231.2344 Q230.9063,1231.2344 229.5781,1229.5938 Q228.2656,1227.9375 228.2656,1224.8125 Q228.2656,1221.6875 229.5781,1220.0313 Q230.9063,1218.375 233.4063,1218.375 Q234.1094,1218.375 234.75,1218.5313 Q235.4063,1218.6875 235.9688,1218.9844 L235.9688,1221.7031 Q235.3438,1221.125 234.75,1220.8594 Q234.1563,1220.5781 233.5313,1220.5781 Q232.1875,1220.5781 231.5,1221.6563 Q230.8125,1222.7188 230.8125,1224.8125 Q230.8125,1226.9063 231.5,1227.9844 Q232.1875,1229.0469 233.5313,1229.0469 Q234.1563,1229.0469 234.75,1228.7813 Q235.3438,1228.5 235.9688,1227.9219 L235.9688,1230.6406 Z " fill="#000000"/><text fill="#000000" font-family="sans-serif" font-size="14" lengthAdjust="spacing" textLength="106" x="247" y="1229.8467">BefundEinsturz</text><line style="stroke:#181818;stroke-width:0.5;" x1="219" x2="355" y1="1241" y2="1241"/><line style="stroke:#181818;stroke-width:0.5;" x1="219" x2="355" y1="1249" y2="1249"/></g><!--class bsb_--><g id="elem_bsb_"><rect codeLine="56" fill="#F1F1F1" height="58.5938" id="bsb_" rx="2.5" ry="2.5" style="stroke:#181818;stroke-width:0.5;" width="150" x="818" y="834.07"/><ellipse cx="833" cy="855.3669" fill="#ADD1B2" rx="11" ry="11" style="stroke:#181818;stroke-width:1.0;"/><path d="M835.9688,861.0075 Q835.3906,861.3044 834.75,861.445 Q834.1094,861.6013 833.4063,861.6013 Q830.9063,861.6013 829.5781,859.9606 Q828.2656,858.3044 828.2656,855.1794 Q828.2656,852.0544 829.5781,850.3981 Q830.9063,848.7419 833.4063,848.7419 Q834.1094,848.7419 834.75,848.8981 Q835.4063,849.0544 835.9688,849.3513 L835.9688,852.07 Q835.3438,851.4919 834.75,851.2263 Q834.1563,850.945 833.5313,850.945 Q832.1875,850.945 831.5,852.0231 Q830.8125,853.0856 830.8125,855.1794 Q830.8125,857.2731 831.5,858.3513 Q832.1875,859.4138 833.5313,859.4138 Q834.1563,859.4138 834.75,859.1481 Q835.3438,858.8669 835.9688,858.2888 L835.9688,861.0075 Z " fill="#000000"/><text fill="#000000" font-family="sans-serif" font-size="14" lengthAdjust="spacing" textLength="50" x="881" y="852.0651">Befund</text><text fill="#000000" font-family="sans-serif" font-size="14" lengthAdjust="spacing" textLength="118" x="847" y="868.362">SteinBlockschlag</text><line style="stroke:#181818;stroke-width:0.5;" x1="819" x2="967" y1="876.6638" y2="876.6638"/><line style="stroke:#181818;stroke-width:0.5;" x1="819" x2="967" y1="884.6638" y2="884.6638"/></g><!--class bbf_--><g id="elem_bbf_"><rect codeLine="57" fill="#F1F1F1" height="58.5938" id="bbf_" rx="2.5" ry="2.5" style="stroke:#181818;stroke-width:0.5;" width="128" x="1003" y="834.07"/><ellipse cx="1018" cy="855.3669" fill="#ADD1B2" rx="11" ry="11" style="stroke:#181818;stroke-width:1.0;"/><path d="M1020.9688,861.0075 Q1020.3906,861.3044 1019.75,861.445 Q1019.1094,861.6013 1018.4063,861.6013 Q1015.9063,861.6013 1014.5781,859.9606 Q1013.2656,858.3044 1013.2656,855.1794 Q1013.2656,852.0544 1014.5781,850.3981 Q1015.9063,848.7419 1018.4063,848.7419 Q1019.1094,848.7419 1019.75,848.8981 Q1020.4063,849.0544 1020.9688,849.3513 L1020.9688,852.07 Q1020.3438,851.4919 1019.75,851.2263 Q1019.1563,850.945 1018.5313,850.945 Q1017.1875,850.945 1016.5,852.0231 Q1015.8125,853.0856 1015.8125,855.1794 Q1015.8125,857.2731 1016.5,858.3513 Q1017.1875,859.4138 1018.5313,859.4138 Q1019.1563,859.4138 1019.75,859.1481 Q1020.3438,858.8669 1020.9688,858.2888 L1020.9688,861.0075 Z " fill="#000000"/><text fill="#000000" font-family="sans-serif" font-size="14" lengthAdjust="spacing" textLength="50" x="1055" y="852.0651">Befund</text><text fill="#000000" font-family="sans-serif" font-size="14" lengthAdjust="spacing" textLength="96" x="1032" y="868.362">BergFelssturz</text><line style="stroke:#181818;stroke-width:0.5;" x1="1004" x2="1130" y1="876.6638" y2="876.6638"/><line style="stroke:#181818;stroke-width:0.5;" x1="1004" x2="1130" y1="884.6638" y2="884.6638"/></g><!--class bhm_--><g id="elem_bhm_"><rect codeLine="58" fill="#F1F1F1" height="48" id="bhm_" rx="2.5" ry="2.5" style="stroke:#181818;stroke-width:0.5;" width="154" x="1166" y="839.37"/><ellipse cx="1181" cy="855.37" fill="#ADD1B2" rx="11" ry="11" style="stroke:#181818;stroke-width:1.0;"/><path d="M1183.9688,861.0106 Q1183.3906,861.3075 1182.75,861.4481 Q1182.1094,861.6044 1181.4063,861.6044 Q1178.9063,861.6044 1177.5781,859.9638 Q1176.2656,858.3075 1176.2656,855.1825 Q1176.2656,852.0575 1177.5781,850.4013 Q1178.9063,848.745 1181.4063,848.745 Q1182.1094,848.745 1182.75,848.9013 Q1183.4063,849.0575 1183.9688,849.3544 L1183.9688,852.0731 Q1183.3438,851.495 1182.75,851.2294 Q1182.1563,850.9481 1181.5313,850.9481 Q1180.1875,850.9481 1179.5,852.0263 Q1178.8125,853.0888 1178.8125,855.1825 Q1178.8125,857.2763 1179.5,858.3544 Q1180.1875,859.4169 1181.5313,859.4169 Q1182.1563,859.4169 1182.75,859.1513 Q1183.3438,858.87 1183.9688,858.2919 L1183.9688,861.0106 Z " fill="#000000"/><text fill="#000000" font-family="sans-serif" font-size="14" lengthAdjust="spacing" textLength="122" x="1195" y="860.2167">BefundHangmure</text><line style="stroke:#181818;stroke-width:0.5;" x1="1167" x2="1319" y1="871.37" y2="871.37"/><line style="stroke:#181818;stroke-width:0.5;" x1="1167" x2="1319" y1="879.37" y2="879.37"/></g><!--class bpr_--><g id="elem_bpr_"><rect codeLine="59" fill="#F1F1F1" height="74.8906" id="bpr_" rx="2.5" ry="2.5" style="stroke:#181818;stroke-width:0.5;" width="117" x="391.5" y="1195.56"/><ellipse cx="406.5" cy="1225.0053" fill="#ADD1B2" rx="11" ry="11" style="stroke:#181818;stroke-width:1.0;"/><path d="M409.4688,1230.6459 Q408.8906,1230.9428 408.25,1231.0834 Q407.6094,1231.2397 406.9063,1231.2397 Q404.4063,1231.2397 403.0781,1229.5991 Q401.7656,1227.9428 401.7656,1224.8178 Q401.7656,1221.6928 403.0781,1220.0366 Q404.4063,1218.3803 406.9063,1218.3803 Q407.6094,1218.3803 408.25,1218.5366 Q408.9063,1218.6928 409.4688,1218.9897 L409.4688,1221.7084 Q408.8438,1221.1303 408.25,1220.8647 Q407.6563,1220.5834 407.0313,1220.5834 Q405.6875,1220.5834 405,1221.6616 Q404.3125,1222.7241 404.3125,1224.8178 Q404.3125,1226.9116 405,1227.9897 Q405.6875,1229.0522 407.0313,1229.0522 Q407.6563,1229.0522 408.25,1228.7866 Q408.8438,1228.5053 409.4688,1227.9272 L409.4688,1230.6459 Z " fill="#000000"/><text fill="#000000" font-family="sans-serif" font-size="14" lengthAdjust="spacing" textLength="50" x="438" y="1213.5551">Befund</text><text fill="#000000" font-family="sans-serif" font-size="14" lengthAdjust="spacing" textLength="85" x="420.5" y="1229.852">Permanente</text><text fill="#000000" font-family="sans-serif" font-size="14" lengthAdjust="spacing" textLength="76" x="425" y="1246.1489">Rutschung</text><line style="stroke:#181818;stroke-width:0.5;" x1="392.5" x2="507.5" y1="1254.4506" y2="1254.4506"/><line style="stroke:#181818;stroke-width:0.5;" x1="392.5" x2="507.5" y1="1262.4506" y2="1262.4506"/></g><!--class bsr_--><g id="elem_bsr_"><rect codeLine="60" fill="#F1F1F1" height="58.5938" id="bsr_" rx="2.5" ry="2.5" style="stroke:#181818;stroke-width:0.5;" width="175" x="1355.5" y="834.07"/><ellipse cx="1370.5" cy="855.3669" fill="#ADD1B2" rx="11" ry="11" style="stroke:#181818;stroke-width:1.0;"/><path d="M1373.4688,861.0075 Q1372.8906,861.3044 1372.25,861.445 Q1371.6094,861.6013 1370.9063,861.6013 Q1368.4063,861.6013 1367.0781,859.9606 Q1365.7656,858.3044 1365.7656,855.1794 Q1365.7656,852.0544 1367.0781,850.3981 Q1368.4063,848.7419 1370.9063,848.7419 Q1371.6094,848.7419 1372.25,848.8981 Q1372.9063,849.0544 1373.4688,849.3513 L1373.4688,852.07 Q1372.8438,851.4919 1372.25,851.2263 Q1371.6563,850.945 1371.0313,850.945 Q1369.6875,850.945 1369,852.0231 Q1368.3125,853.0856 1368.3125,855.1794 Q1368.3125,857.2731 1369,858.3513 Q1369.6875,859.4138 1371.0313,859.4138 Q1371.6563,859.4138 1372.25,859.1481 Q1372.8438,858.8669 1373.4688,858.2888 L1373.4688,861.0075 Z " fill="#000000"/><text fill="#000000" font-family="sans-serif" font-size="14" lengthAdjust="spacing" textLength="50" x="1431" y="852.0651">Befund</text><text fill="#000000" font-family="sans-serif" font-size="14" lengthAdjust="spacing" textLength="143" x="1384.5" y="868.362">SpontaneRutschung</text><line style="stroke:#181818;stroke-width:0.5;" x1="1356.5" x2="1529.5" y1="876.6638" y2="876.6638"/><line style="stroke:#181818;stroke-width:0.5;" x1="1356.5" x2="1529.5" y1="884.6638" y2="884.6638"/></g><!--class bum_--><g id="elem_bum_"><rect codeLine="61" fill="#F1F1F1" height="48" id="bum_" rx="2.5" ry="2.5" style="stroke:#181818;stroke-width:0.5;" width="178" x="543" y="1209"/><ellipse cx="558" cy="1225" fill="#ADD1B2" rx="11" ry="11" style="stroke:#181818;stroke-width:1.0;"/><path d="M560.9688,1230.6406 Q560.3906,1230.9375 559.75,1231.0781 Q559.1094,1231.2344 558.4063,1231.2344 Q555.9063,1231.2344 554.5781,1229.5938 Q553.2656,1227.9375 553.2656,1224.8125 Q553.2656,1221.6875 554.5781,1220.0313 Q555.9063,1218.375 558.4063,1218.375 Q559.1094,1218.375 559.75,1218.5313 Q560.4063,1218.6875 560.9688,1218.9844 L560.9688,1221.7031 Q560.3438,1221.125 559.75,1220.8594 Q559.1563,1220.5781 558.5313,1220.5781 Q557.1875,1220.5781 556.5,1221.6563 Q555.8125,1222.7188 555.8125,1224.8125 Q555.8125,1226.9063 556.5,1227.9844 Q557.1875,1229.0469 558.5313,1229.0469 Q559.1563,1229.0469 559.75,1228.7813 Q560.3438,1228.5 560.9688,1227.9219 L560.9688,1230.6406 Z " fill="#000000"/><text fill="#000000" font-family="sans-serif" font-size="14" lengthAdjust="spacing" textLength="146" x="572" y="1229.8467">BefundUebermurung</text><line style="stroke:#181818;stroke-width:0.5;" x1="544" x2="720" y1="1241" y2="1241"/><line style="stroke:#181818;stroke-width:0.5;" x1="544" x2="720" y1="1249" y2="1249"/></g><!--class bud_--><g id="elem_bud_"><rect codeLine="62" fill="#F1F1F1" height="74.8906" id="bud_" rx="2.5" ry="2.5" style="stroke:#181818;stroke-width:0.5;" width="172" x="756" y="1195.56"/><ellipse cx="771" cy="1225.0053" fill="#ADD1B2" rx="11" ry="11" style="stroke:#181818;stroke-width:1.0;"/><path d="M773.9688,1230.6459 Q773.3906,1230.9428 772.75,1231.0834 Q772.1094,1231.2397 771.4063,1231.2397 Q768.9063,1231.2397 767.5781,1229.5991 Q766.2656,1227.9428 766.2656,1224.8178 Q766.2656,1221.6928 767.5781,1220.0366 Q768.9063,1218.3803 771.4063,1218.3803 Q772.1094,1218.3803 772.75,1218.5366 Q773.4063,1218.6928 773.9688,1218.9897 L773.9688,1221.7084 Q773.3438,1221.1303 772.75,1220.8647 Q772.1563,1220.5834 771.5313,1220.5834 Q770.1875,1220.5834 769.5,1221.6616 Q768.8125,1222.7241 768.8125,1224.8178 Q768.8125,1226.9116 769.5,1227.9897 Q770.1875,1229.0522 771.5313,1229.0522 Q772.1563,1229.0522 772.75,1228.7866 Q773.3438,1228.5053 773.9688,1227.9272 L773.9688,1230.6459 Z " fill="#000000"/><text fill="#000000" font-family="sans-serif" font-size="14" lengthAdjust="spacing" textLength="50" x="830" y="1213.5551">Befund</text><text fill="#000000" font-family="sans-serif" font-size="14" lengthAdjust="spacing" textLength="140" x="785" y="1229.852">Ueberschwemmung</text><text fill="#000000" font-family="sans-serif" font-size="14" lengthAdjust="spacing" textLength="76" x="817" y="1246.1489">Dynamisch</text><line style="stroke:#181818;stroke-width:0.5;" x1="757" x2="927" y1="1254.4506" y2="1254.4506"/><line style="stroke:#181818;stroke-width:0.5;" x1="757" x2="927" y1="1262.4506" y2="1262.4506"/></g><!--class bus_--><g id="elem_bus_"><rect codeLine="63" fill="#F1F1F1" height="74.8906" id="bus_" rx="2.5" ry="2.5" style="stroke:#181818;stroke-width:0.5;" width="172" x="963" y="1195.56"/><ellipse cx="978" cy="1225.0053" fill="#ADD1B2" rx="11" ry="11" style="stroke:#181818;stroke-width:1.0;"/><path d="M980.9688,1230.6459 Q980.3906,1230.9428 979.75,1231.0834 Q979.1094,1231.2397 978.4063,1231.2397 Q975.9063,1231.2397 974.5781,1229.5991 Q973.2656,1227.9428 973.2656,1224.8178 Q973.2656,1221.6928 974.5781,1220.0366 Q975.9063,1218.3803 978.4063,1218.3803 Q979.1094,1218.3803 979.75,1218.5366 Q980.4063,1218.6928 980.9688,1218.9897 L980.9688,1221.7084 Q980.3438,1221.1303 979.75,1220.8647 Q979.1563,1220.5834 978.5313,1220.5834 Q977.1875,1220.5834 976.5,1221.6616 Q975.8125,1222.7241 975.8125,1224.8178 Q975.8125,1226.9116 976.5,1227.9897 Q977.1875,1229.0522 978.5313,1229.0522 Q979.1563,1229.0522 979.75,1228.7866 Q980.3438,1228.5053 980.9688,1227.9272 L980.9688,1230.6459 Z " fill="#000000"/><text fill="#000000" font-family="sans-serif" font-size="14" lengthAdjust="spacing" textLength="50" x="1037" y="1213.5551">Befund</text><text fill="#000000" font-family="sans-serif" font-size="14" lengthAdjust="spacing" textLength="140" x="992" y="1229.852">Ueberschwemmung</text><text fill="#000000" font-family="sans-serif" font-size="14" lengthAdjust="spacing" textLength="55" x="1034.5" y="1246.1489">Statisch</text><line style="stroke:#181818;stroke-width:0.5;" x1="964" x2="1134" y1="1254.4506" y2="1254.4506"/><line style="stroke:#181818;stroke-width:0.5;" x1="964" x2="1134" y1="1262.4506" y2="1262.4506"/></g><!--class bue_--><g id="elem_bue_"><rect codeLine="64" fill="#F1F1F1" height="48" id="bue_" rx="2.5" ry="2.5" style="stroke:#181818;stroke-width:0.5;" width="162" x="1170" y="1209"/><ellipse cx="1185" cy="1225" fill="#ADD1B2" rx="11" ry="11" style="stroke:#181818;stroke-width:1.0;"/><path d="M1187.9688,1230.6406 Q1187.3906,1230.9375 1186.75,1231.0781 Q1186.1094,1231.2344 1185.4063,1231.2344 Q1182.9063,1231.2344 1181.5781,1229.5938 Q1180.2656,1227.9375 1180.2656,1224.8125 Q1180.2656,1221.6875 1181.5781,1220.0313 Q1182.9063,1218.375 1185.4063,1218.375 Q1186.1094,1218.375 1186.75,1218.5313 Q1187.4063,1218.6875 1187.9688,1218.9844 L1187.9688,1221.7031 Q1187.3438,1221.125 1186.75,1220.8594 Q1186.1563,1220.5781 1185.5313,1220.5781 Q1184.1875,1220.5781 1183.5,1221.6563 Q1182.8125,1222.7188 1182.8125,1224.8125 Q1182.8125,1226.9063 1183.5,1227.9844 Q1184.1875,1229.0469 1185.5313,1229.0469 Q1186.1563,1229.0469 1186.75,1228.7813 Q1187.3438,1228.5 1187.9688,1227.9219 L1187.9688,1230.6406 Z " fill="#000000"/><text fill="#000000" font-family="sans-serif" font-size="14" lengthAdjust="spacing" textLength="130" x="1199" y="1229.8467">BefundUfererosion</text><line style="stroke:#181818;stroke-width:0.5;" x1="1171" x2="1331" y1="1241" y2="1241"/><line style="stroke:#181818;stroke-width:0.5;" x1="1171" x2="1331" y1="1249" y2="1249"/></g><!--class bj_--><g id="elem_bj_"><rect codeLine="65" fill="#F1F1F1" height="48" id="bj_" rx="2.5" ry="2.5" style="stroke:#181818;stroke-width:0.5;" width="164" x="1367" y="1209"/><ellipse cx="1382" cy="1225" fill="#ADD1B2" rx="11" ry="11" style="stroke:#181818;stroke-width:1.0;"/><path d="M1384.9688,1230.6406 Q1384.3906,1230.9375 1383.75,1231.0781 Q1383.1094,1231.2344 1382.4063,1231.2344 Q1379.9063,1231.2344 1378.5781,1229.5938 Q1377.2656,1227.9375 1377.2656,1224.8125 Q1377.2656,1221.6875 1378.5781,1220.0313 Q1379.9063,1218.375 1382.4063,1218.375 Q1383.1094,1218.375 1383.75,1218.5313 Q1384.4063,1218.6875 1384.9688,1218.9844 L1384.9688,1221.7031 Q1384.3438,1221.125 1383.75,1220.8594 Q1383.1563,1220.5781 1382.5313,1220.5781 Q1381.1875,1220.5781 1380.5,1221.6563 Q1379.8125,1222.7188 1379.8125,1224.8125 Q1379.8125,1226.9063 1380.5,1227.9844 Q1381.1875,1229.0469 1382.5313,1229.0469 Q1383.1563,1229.0469 1383.75,1228.7813 Q1384.3438,1228.5 1384.9688,1227.9219 L1384.9688,1230.6406 Z " fill="#000000"/><text fill="#000000" font-family="sans-serif" font-size="14" lengthAdjust="spacing" textLength="132" x="1396" y="1229.8467">BefundJaehrlichkeit</text><line style="stroke:#181818;stroke-width:0.5;" x1="1368" x2="1530" y1="1241" y2="1241"/><line style="stroke:#181818;stroke-width:0.5;" x1="1368" x2="1530" y1="1249" y2="1249"/></g><!--class kst_--><g id="elem_kst_"><rect codeLine="66" fill="#F1F1F1" height="74.8906" id="kst_" rx="2.5" ry="2.5" style="stroke:#181818;stroke-width:0.5;" width="172" x="22" y="952.67"/><ellipse cx="37" cy="982.1153" fill="#ADD1B2" rx="11" ry="11" style="stroke:#181818;stroke-width:1.0;"/><path d="M39.9688,987.7559 Q39.3906,988.0528 38.75,988.1934 Q38.1094,988.3497 37.4063,988.3497 Q34.9063,988.3497 33.5781,986.7091 Q32.2656,985.0528 32.2656,981.9278 Q32.2656,978.8028 33.5781,977.1466 Q34.9063,975.4903 37.4063,975.4903 Q38.1094,975.4903 38.75,975.6466 Q39.4063,975.8028 39.9688,976.0997 L39.9688,978.8184 Q39.3438,978.2403 38.75,977.9747 Q38.1563,977.6934 37.5313,977.6934 Q36.1875,977.6934 35.5,978.7716 Q34.8125,979.8341 34.8125,981.9278 Q34.8125,984.0216 35.5,985.0997 Q36.1875,986.1622 37.5313,986.1622 Q38.1563,986.1622 38.75,985.8966 Q39.3438,985.6153 39.9688,985.0372 L39.9688,987.7559 Z " fill="#000000"/><text fill="#000000" font-family="sans-serif" font-size="14" lengthAdjust="spacing" textLength="66" x="88" y="970.6651">Kennwert</text><text fill="#000000" font-family="sans-serif" font-size="14" lengthAdjust="spacing" textLength="140" x="51" y="986.962">Ueberschwemmung</text><text fill="#000000" font-family="sans-serif" font-size="14" lengthAdjust="spacing" textLength="69" x="86.5" y="1003.2589">Fliesstiefe</text><line style="stroke:#181818;stroke-width:0.5;" x1="23" x2="193" y1="1011.5606" y2="1011.5606"/><line style="stroke:#181818;stroke-width:0.5;" x1="23" x2="193" y1="1019.5606" y2="1019.5606"/></g><!--class ksg_--><g id="elem_ksg_"><rect codeLine="67" fill="#F1F1F1" height="74.8906" id="ksg_" rx="2.5" ry="2.5" style="stroke:#181818;stroke-width:0.5;" width="183" x="229.5" y="952.67"/><ellipse cx="244.5" cy="982.1153" fill="#ADD1B2" rx="11" ry="11" style="stroke:#181818;stroke-width:1.0;"/><path d="M247.4688,987.7559 Q246.8906,988.0528 246.25,988.1934 Q245.6094,988.3497 244.9063,988.3497 Q242.4063,988.3497 241.0781,986.7091 Q239.7656,985.0528 239.7656,981.9278 Q239.7656,978.8028 241.0781,977.1466 Q242.4063,975.4903 244.9063,975.4903 Q245.6094,975.4903 246.25,975.6466 Q246.9063,975.8028 247.4688,976.0997 L247.4688,978.8184 Q246.8438,978.2403 246.25,977.9747 Q245.6563,977.6934 245.0313,977.6934 Q243.6875,977.6934 243,978.7716 Q242.3125,979.8341 242.3125,981.9278 Q242.3125,984.0216 243,985.0997 Q243.6875,986.1622 245.0313,986.1622 Q245.6563,986.1622 246.25,985.8966 Q246.8438,985.6153 247.4688,985.0372 L247.4688,987.7559 Z " fill="#000000"/><text fill="#000000" font-family="sans-serif" font-size="14" lengthAdjust="spacing" textLength="66" x="301" y="970.6651">Kennwert</text><text fill="#000000" font-family="sans-serif" font-size="14" lengthAdjust="spacing" textLength="140" x="264" y="986.962">Ueberschwemmung</text><text fill="#000000" font-family="sans-serif" font-size="14" lengthAdjust="spacing" textLength="151" x="258.5" y="1003.2589">Fliessgeschwindigkeit</text><line style="stroke:#181818;stroke-width:0.5;" x1="230.5" x2="411.5" y1="1011.5606" y2="1011.5606"/><line style="stroke:#181818;stroke-width:0.5;" x1="230.5" x2="411.5" y1="1019.5606" y2="1019.5606"/></g><!--class kmt_--><g id="elem_kmt_"><rect codeLine="68" fill="#F1F1F1" height="74.8906" id="kmt_" rx="2.5" ry="2.5" style="stroke:#181818;stroke-width:0.5;" width="128" x="448" y="952.67"/><ellipse cx="463" cy="982.1153" fill="#ADD1B2" rx="11" ry="11" style="stroke:#181818;stroke-width:1.0;"/><path d="M465.9688,987.7559 Q465.3906,988.0528 464.75,988.1934 Q464.1094,988.3497 463.4063,988.3497 Q460.9063,988.3497 459.5781,986.7091 Q458.2656,985.0528 458.2656,981.9278 Q458.2656,978.8028 459.5781,977.1466 Q460.9063,975.4903 463.4063,975.4903 Q464.1094,975.4903 464.75,975.6466 Q465.4063,975.8028 465.9688,976.0997 L465.9688,978.8184 Q465.3438,978.2403 464.75,977.9747 Q464.1563,977.6934 463.5313,977.6934 Q462.1875,977.6934 461.5,978.7716 Q460.8125,979.8341 460.8125,981.9278 Q460.8125,984.0216 461.5,985.0997 Q462.1875,986.1622 463.5313,986.1622 Q464.1563,986.1622 464.75,985.8966 Q465.3438,985.6153 465.9688,985.0372 L465.9688,987.7559 Z " fill="#000000"/><text fill="#000000" font-family="sans-serif" font-size="14" lengthAdjust="spacing" textLength="66" x="492" y="970.6651">Kennwert</text><text fill="#000000" font-family="sans-serif" font-size="14" lengthAdjust="spacing" textLength="96" x="477" y="986.962">Uebermurung</text><text fill="#000000" font-family="sans-serif" font-size="14" lengthAdjust="spacing" textLength="69" x="490.5" y="1003.2589">Fliesstiefe</text><line style="stroke:#181818;stroke-width:0.5;" x1="449" x2="575" y1="1011.5606" y2="1011.5606"/><line style="stroke:#181818;stroke-width:0.5;" x1="449" x2="575" y1="1019.5606" y2="1019.5606"/></g><!--class kmg_--><g id="elem_kmg_"><rect codeLine="69" fill="#F1F1F1" height="74.8906" id="kmg_" rx="2.5" ry="2.5" style="stroke:#181818;stroke-width:0.5;" width="183" x="611.5" y="952.67"/><ellipse cx="626.5" cy="982.1153" fill="#ADD1B2" rx="11" ry="11" style="stroke:#181818;stroke-width:1.0;"/><path d="M629.4688,987.7559 Q628.8906,988.0528 628.25,988.1934 Q627.6094,988.3497 626.9063,988.3497 Q624.4063,988.3497 623.0781,986.7091 Q621.7656,985.0528 621.7656,981.9278 Q621.7656,978.8028 623.0781,977.1466 Q624.4063,975.4903 626.9063,975.4903 Q627.6094,975.4903 628.25,975.6466 Q628.9063,975.8028 629.4688,976.0997 L629.4688,978.8184 Q628.8438,978.2403 628.25,977.9747 Q627.6563,977.6934 627.0313,977.6934 Q625.6875,977.6934 625,978.7716 Q624.3125,979.8341 624.3125,981.9278 Q624.3125,984.0216 625,985.0997 Q625.6875,986.1622 627.0313,986.1622 Q627.6563,986.1622 628.25,985.8966 Q628.8438,985.6153 629.4688,985.0372 L629.4688,987.7559 Z " fill="#000000"/><text fill="#000000" font-family="sans-serif" font-size="14" lengthAdjust="spacing" textLength="66" x="683" y="970.6651">Kennwert</text><text fill="#000000" font-family="sans-serif" font-size="14" lengthAdjust="spacing" textLength="96" x="668" y="986.962">Uebermurung</text><text fill="#000000" font-family="sans-serif" font-size="14" lengthAdjust="spacing" textLength="151" x="640.5" y="1003.2589">Fliessgeschwindigkeit</text><line style="stroke:#181818;stroke-width:0.5;" x1="612.5" x2="793.5" y1="1011.5606" y2="1011.5606"/><line style="stroke:#181818;stroke-width:0.5;" x1="612.5" x2="793.5" y1="1019.5606" y2="1019.5606"/></g><!--link at to ta--><g id="link_at_ta"><path codeLine="9" d="M1118.24,127.95 C1079.94,145.75 1022.52,172.45 981.37,191.58 " fill="none" id="at-ta" style="stroke:#181818;stroke-width:1.0;"/><text fill="#000000" font-family="sans-serif" font-size="13" lengthAdjust="spacing" textLength="8" x="1102.5469" y="127.1682">1</text><text fill="#000000" font-family="sans-serif" font-size="13" lengthAdjust="spacing" textLength="23" x="967.8446" y="180.8826">1..*</text></g><!--link at to b--><g id="link_at_b"><path codeLine="10" d="M1185.12,132.26 C1204.96,149.93 1232.12,174.13 1251.95,191.79 " fill="none" id="at-b" style="stroke:#181818;stroke-width:1.0;"/><text fill="#000000" font-family="sans-serif" font-size="13" lengthAdjust="spacing" textLength="8" x="1182.5118" y="152.0846">1</text><text fill="#000000" font-family="sans-serif" font-size="13" lengthAdjust="spacing" textLength="23" x="1219.3278" y="180.7482">1..*</text></g><!--link ar to ta--><g id="link_ar_ta"><path codeLine="11" d="M931,132.26 C931,149.93 931,174.13 931,191.79 " fill="none" id="ar-ta" style="stroke:#181818;stroke-width:1.0;"/><text fill="#000000" font-family="sans-serif" font-size="13" lengthAdjust="spacing" textLength="8" x="922.025" y="152.0846">1</text><text fill="#000000" font-family="sans-serif" font-size="13" lengthAdjust="spacing" textLength="23" x="905.0531" y="180.7482">1..*</text></g><!--link ta to ap--><g id="link_ta_ap"><path codeLine="12" d="M983.44,216 C994.65,216 1005.85,216 1017.06,216 " fill="none" id="ta-ap" style="stroke:#181818;stroke-width:1.0;"/><text fill="#000000" font-family="sans-serif" font-size="13" lengthAdjust="spacing" textLength="23" x="986.6273" y="211.8834">1..*</text><text fill="#000000" font-family="sans-serif" font-size="13" lengthAdjust="spacing" textLength="23" x="986.3902" y="228.6226">1..*</text></g><!--link pq to psb--><g id="link_pq_psb"><path codeLine="29" d="M865.61,348.43 C771.77,361.14 593.84,387.55 445,423 C439.55,424.29 433.96,425.74 428.34,427.26 " fill="none" id="pq-psb" style="stroke:#181818;stroke-width:1.0;"/><text fill="#000000" font-family="sans-serif" font-size="13" lengthAdjust="spacing" textLength="8" x="850.0205" y="345.7153">1</text><text fill="#000000" font-family="sans-serif" font-size="13" lengthAdjust="spacing" textLength="7" x="436.1008" y="421.1306">*</text></g><!--link pq to psr--><g id="link_pq_psr"><path codeLine="30" d="M889.7,363.33 C859.13,380.6 817.3,404.23 784.69,422.65 " fill="none" id="pq-psr" style="stroke:#181818;stroke-width:1.0;"/><text fill="#000000" font-family="sans-serif" font-size="13" lengthAdjust="spacing" textLength="8" x="870.6581" y="383.1716">1</text><text fill="#000000" font-family="sans-serif" font-size="13" lengthAdjust="spacing" textLength="7" x="787.4229" y="412.069">*</text></g><!--link pq to phm--><g id="link_pq_phm"><path codeLine="31" d="M931,363.33 C931,380.67 931,404.41 931,422.86 " fill="none" id="pq-phm" style="stroke:#181818;stroke-width:1.0;"/><text fill="#000000" font-family="sans-serif" font-size="13" lengthAdjust="spacing" textLength="8" x="922.025" y="383.1716">1</text><text fill="#000000" font-family="sans-serif" font-size="13" lengthAdjust="spacing" textLength="7" x="923.2344" y="411.8615">*</text></g><!--link pq to pbf--><g id="link_pq_pbf"><path codeLine="32" d="M865.74,357.32 C804.47,373.73 710.31,399.32 629,423 C623.22,424.68 617.25,426.45 611.26,428.24 " fill="none" id="pq-pbf" style="stroke:#181818;stroke-width:1.0;"/><text fill="#000000" font-family="sans-serif" font-size="13" lengthAdjust="spacing" textLength="8" x="850.1647" y="372.2182">1</text><text fill="#000000" font-family="sans-serif" font-size="13" lengthAdjust="spacing" textLength="7" x="618.9145" y="422.2071">*</text></g><!--link pq to btp--><g id="link_pq_btp"><path codeLine="33" d="M996.06,361.62 C1042.87,377.58 1107.32,400.38 1163,423 C1168.59,425.27 1174.41,427.76 1180.16,430.29 " fill="none" id="pq-btp" style="stroke:#181818;stroke-width:1.0;"/><text fill="#000000" font-family="sans-serif" font-size="13" lengthAdjust="spacing" textLength="8" x="1004.0451" y="377.1772">1</text><text fill="#000000" font-family="sans-serif" font-size="13" lengthAdjust="spacing" textLength="7" x="1165.4558" y="422.6648">*</text></g><!--link pq to ktp--><g id="link_pq_ktp"><path codeLine="34" d="M964.96,363.33 C990.1,380.6 1024.5,404.23 1051.31,422.65 " fill="none" id="pq-ktp" style="stroke:#181818;stroke-width:1.0;"/><text fill="#000000" font-family="sans-serif" font-size="13" lengthAdjust="spacing" textLength="8" x="964.2628" y="383.1716">1</text><text fill="#000000" font-family="sans-serif" font-size="13" lengthAdjust="spacing" textLength="7" x="1034.9896" y="412.069">*</text></g><!--link pq to fl--><g id="link_pq_fl"><path codeLine="35" d="M996.18,354.23 C1067.74,370.09 1185.91,396.93 1287,423 C1292.94,424.53 1299.07,426.15 1305.22,427.82 " fill="none" id="pq-fl" style="stroke:#181818;stroke-width:1.0;"/><text fill="#000000" font-family="sans-serif" font-size="13" lengthAdjust="spacing" textLength="8" x="1004.1789" y="352.1984">1</text><text fill="#000000" font-family="sans-serif" font-size="13" lengthAdjust="spacing" textLength="7" x="1290.0918" y="421.8461">*</text></g><!--link psb to bsb--><g id="link_psb_bsb"><path codeLine="37" d="M353,481.91 C353,502.2 353,529.3 353,549.55 " fill="none" id="psb-bsb" style="stroke:#181818;stroke-width:1.0;"/><text fill="#000000" font-family="sans-serif" font-size="13" lengthAdjust="spacing" textLength="8" x="344.175" y="501.6452">1</text><text fill="#000000" font-family="sans-serif" font-size="13" lengthAdjust="spacing" textLength="23" x="327.4844" y="538.5405">1..*</text></g><!--link psr to bsr--><g id="link_psr_bsr"><path codeLine="38" d="M734,481.91 C734,499.61 734,522.49 734,541.49 " fill="none" id="psr-bsr" style="stroke:#181818;stroke-width:1.0;"/><text fill="#000000" font-family="sans-serif" font-size="13" lengthAdjust="spacing" textLength="8" x="725.175" y="501.6452">1</text><text fill="#000000" font-family="sans-serif" font-size="13" lengthAdjust="spacing" textLength="23" x="708.9516" y="530.545">1..*</text></g><!--link phm to bhm--><g id="link_phm_bhm"><path codeLine="40" d="M931,481.91 C931,503.92 931,533.96 931,554.56 " fill="none" id="phm-bhm" style="stroke:#181818;stroke-width:1.0;"/><text fill="#000000" font-family="sans-serif" font-size="13" lengthAdjust="spacing" textLength="8" x="922.175" y="501.6452">1</text><text fill="#000000" font-family="sans-serif" font-size="13" lengthAdjust="spacing" textLength="23" x="905.1969" y="543.848">1..*</text></g><!--link pbf to bbf--><g id="link_pbf_bbf"><path codeLine="41" d="M540.44,481.91 C543.09,503.92 546.7,533.96 549.18,554.56 " fill="none" id="pbf-bbf" style="stroke:#181818;stroke-width:1.0;"/><text fill="#000000" font-family="sans-serif" font-size="13" lengthAdjust="spacing" textLength="8" x="532.3245" y="501.6452">1</text><text fill="#000000" font-family="sans-serif" font-size="13" lengthAdjust="spacing" textLength="23" x="522.6895" y="543.848">1..*</text></g><!--link ta to pq--><g id="link_ta_pq"><path codeLine="44" d="M931,240.33 C931,261.75 931,293.33 931,314.74 " fill="none" id="ta-pq" style="stroke:#181818;stroke-width:1.0;"/><text fill="#000000" font-family="sans-serif" font-size="13" lengthAdjust="spacing" textLength="8" x="922.025" y="260.1716">1</text><text fill="#000000" font-family="sans-serif" font-size="13" lengthAdjust="spacing" textLength="7" x="923.1469" y="304.0816">*</text></g><!--reverse link prm_ to psr_--><g id="link_prm__psr_"><path codeLine="71" d="M184.9274,787.0632 C166.9574,805.1332 156.48,815.65 138.49,833.74 " fill="none" id="prm_-backto-psr_" style="stroke:#181818;stroke-width:1.0;"/><polygon fill="none" points="197.62,774.3,180.673,782.8323,189.1818,791.294,197.62,774.3" style="stroke:#181818;stroke-width:1.0;"/></g><!--reverse link prm_ to phm_--><g id="link_prm__phm_"><path codeLine="72" d="M267.3702,787.0056 C287.4002,806.9656 301.06,820.57 319.78,839.23 " fill="none" id="prm_-backto-phm_" style="stroke:#181818;stroke-width:1.0;"/><polygon fill="none" points="254.62,774.3,263.135,791.2557,271.6054,782.7556,254.62,774.3" style="stroke:#181818;stroke-width:1.0;"/></g><!--reverse link bb_ to ktp_--><g id="link_bb__ktp_"><path codeLine="74" d="M850.6941,771.4288 C787.1341,791.7388 706.33,817.54 639.37,838.93 " fill="none" id="bb_-backto-ktp_" style="stroke:#181818;stroke-width:1.0;"/><polygon fill="none" points="867.84,765.95,848.8678,765.7135,852.5204,777.1441,867.84,765.95" style="stroke:#181818;stroke-width:1.0;"/></g><!--reverse link bb_ to btp_--><g id="link_bb__btp_"><path codeLine="75" d="M857.642,777.6134 C830.422,791.9834 816.45,804.9 801,834.07 C788.81,857.09 798.64,866.73 801,892.67 C803.45,919.67 807.93,925.86 812,952.67 C819.23,1000.3 825.43,1056.36 828.65,1087.22 " fill="none" id="bb_-backto-btp_" style="stroke:#181818;stroke-width:1.0;"/><polygon fill="none" points="873.56,769.21,854.8409,772.3074,860.4432,782.9194,873.56,769.21" style="stroke:#181818;stroke-width:1.0;"/></g><!--reverse link bb_ to bsb_--><g id="link_bb__bsb_"><path codeLine="76" d="M917.8267,786.2054 C911.7667,804.8154 908.81,813.85 902.33,833.73 " fill="none" id="bb_-backto-bsb_" style="stroke:#181818;stroke-width:1.0;"/><polygon fill="none" points="923.4,769.09,912.1215,784.3477,923.5318,788.0632,923.4,769.09" style="stroke:#181818;stroke-width:1.0;"/></g><!--reverse link bb_ to bbf_--><g id="link_bb__bbf_"><path codeLine="77" d="M971.8562,780.8048 C993.5662,799.4148 1010.41,813.85 1033.59,833.73 " fill="none" id="bb_-backto-bbf_" style="stroke:#181818;stroke-width:1.0;"/><polygon fill="none" points="958.19,769.09,967.9513,785.3602,975.7611,776.2494,958.19,769.09" style="stroke:#181818;stroke-width:1.0;"/></g><!--reverse link bb_ to bhm_--><g id="link_bb__bhm_"><path codeLine="78" d="M1010.6216,775.5298 C1064.9016,795.8098 1126.09,818.68 1180.34,838.96 " fill="none" id="bb_-backto-bhm_" style="stroke:#181818;stroke-width:1.0;"/><polygon fill="none" points="993.76,769.23,1008.5216,781.1503,1012.7215,769.9093,993.76,769.23" style="stroke:#181818;stroke-width:1.0;"/></g><!--reverse link bb_ to bsr_--><g id="link_bb__bsr_"><path codeLine="79" d="M1011.9576,762.0939 C1092.1976,778.4439 1216.98,804.66 1338,834.07 C1343.6,835.43 1349.35,836.87 1355.14,838.35 " fill="none" id="bb_-backto-bsr_" style="stroke:#181818;stroke-width:1.0;"/><polygon fill="none" points="994.32,758.5,1010.7596,767.9731,1013.1555,756.2147,994.32,758.5" style="stroke:#181818;stroke-width:1.0;"/></g><!--reverse link btp_ to ba_--><g id="link_btp__ba_"><path codeLine="81" d="M743.4607,1117.7897 C626.1807,1125.6897 400.26,1145.83 200,1195.56 C186.26,1198.97 171.79,1203.69 158.32,1208.6 " fill="none" id="btp_-backto-ba_" style="stroke:#181818;stroke-width:1.0;"/><polygon fill="none" points="761.42,1116.58,743.0575,1111.8033,743.8639,1123.7762,761.42,1116.58" style="stroke:#181818;stroke-width:1.0;"/></g><!--reverse link btp_ to be_--><g id="link_btp__be_"><path codeLine="82" d="M743.5288,1122.6607 C652.9688,1133.9707 508.33,1155.74 374,1195.56 C362.07,1199.1 349.55,1203.75 337.85,1208.53 " fill="none" id="btp_-backto-be_" style="stroke:#181818;stroke-width:1.0;"/><polygon fill="none" points="761.39,1120.43,742.7852,1116.7069,744.2723,1128.6144,761.39,1120.43" style="stroke:#181818;stroke-width:1.0;"/></g><!--reverse link btp_ to bpr_--><g id="link_btp__bpr_"><path codeLine="83" d="M743.5948,1131.8243 C681.0348,1146.3243 604.81,1166.22 526,1195.56 C520.38,1197.65 514.61,1200.01 508.88,1202.49 " fill="none" id="btp_-backto-bpr_" style="stroke:#181818;stroke-width:1.0;"/><polygon fill="none" points="761.13,1127.76,742.2401,1125.9792,744.9496,1137.6693,761.13,1127.76" style="stroke:#181818;stroke-width:1.0;"/></g><!--reverse link btp_ to bum_--><g id="link_btp__bum_"><path codeLine="84" d="M776.7271,1145.1342 C741.7771,1166.1142 706.11,1187.52 671.08,1208.55 " fill="none" id="btp_-backto-bum_" style="stroke:#181818;stroke-width:1.0;"/><polygon fill="none" points="792.16,1135.87,773.639,1139.9899,779.8151,1150.2785,792.16,1135.87" style="stroke:#181818;stroke-width:1.0;"/></g><!--reverse link btp_ to bud_--><g id="link_btp__bud_"><path codeLine="85" d="M834.7998,1153.7942 C836.3498,1170.6342 836.82,1175.79 838.6,1195.12 " fill="none" id="btp_-backto-bud_" style="stroke:#181818;stroke-width:1.0;"/><polygon fill="none" points="833.15,1135.87,828.8251,1154.3442,840.7745,1153.2443,833.15,1135.87" style="stroke:#181818;stroke-width:1.0;"/></g><!--reverse link btp_ to bus_--><g id="link_btp__bus_"><path codeLine="86" d="M889.5976,1144.6659 C920.3476,1161.5059 946.63,1175.91 981.83,1195.2 " fill="none" id="btp_-backto-bus_" style="stroke:#181818;stroke-width:1.0;"/><polygon fill="none" points="873.81,1136.02,886.7156,1149.9285,892.4796,1139.4034,873.81,1136.02" style="stroke:#181818;stroke-width:1.0;"/></g><!--reverse link btp_ to bue_--><g id="link_btp__bue_"><path codeLine="87" d="M918.5263,1132.4925 C984.1463,1147.8525 1067.21,1168.63 1153,1195.56 C1165.38,1199.45 1178.49,1204.01 1190.96,1208.56 " fill="none" id="btp_-backto-bue_" style="stroke:#181818;stroke-width:1.0;"/><polygon fill="none" points="901,1128.39,917.1588,1138.3345,919.8937,1126.6504,901,1128.39" style="stroke:#181818;stroke-width:1.0;"/></g><!--reverse link btp_ to bj_--><g id="link_btp__bj_"><path codeLine="88" d="M918.6274,1121.2787 C1019.0874,1132.0487 1191.97,1154.25 1350,1195.56 C1363.47,1199.08 1377.66,1203.72 1390.97,1208.51 " fill="none" id="btp_-backto-bj_" style="stroke:#181818;stroke-width:1.0;"/><polygon fill="none" points="900.73,1119.36,917.9879,1127.2445,919.267,1115.3129,900.73,1119.36" style="stroke:#181818;stroke-width:1.0;"/></g><!--reverse link ktp_ to kst_--><g id="link_ktp__kst_"><path codeLine="90" d="M471.2718,892.7317 C465.3318,894.4017 476.74,891.15 471,892.67 C356.77,922.88 325.48,919.75 212,952.67 C206.21,954.35 200.27,956.17 194.31,958.06 " fill="none" id="ktp_-backto-kst_" style="stroke:#181818;stroke-width:1.0;"/><polygon fill="none" points="488.6,887.86,469.6479,886.9557,472.8957,898.5078,488.6,887.86" style="stroke:#181818;stroke-width:1.0;"/></g><!--reverse link ktp_ to ksg_--><g id="link_ktp__ksg_"><path codeLine="91" d="M503.8793,895.9967 C468.2493,914.1367 434.31,931.42 393.37,952.27 " fill="none" id="ktp_-backto-ksg_" style="stroke:#181818;stroke-width:1.0;"/><polygon fill="none" points="519.92,887.83,501.157,890.6498,506.6015,901.3436,519.92,887.83" style="stroke:#181818;stroke-width:1.0;"/></g><!--reverse link ktp_ to kmt_--><g id="link_ktp__kmt_"><path codeLine="92" d="M548.6915,904.3496 C540.8115,922.5596 536.89,931.62 527.84,952.51 " fill="none" id="ktp_-backto-kmt_" style="stroke:#181818;stroke-width:1.0;"/><polygon fill="none" points="555.84,887.83,543.1849,901.9668,554.198,906.7325,555.84,887.83" style="stroke:#181818;stroke-width:1.0;"/></g><!--reverse link ktp_ to kmg_--><g id="link_ktp__kmg_"><path codeLine="93" d="M605.0786,899.9494 C624.9986,918.0894 639.64,931.42 662.53,952.27 " fill="none" id="ktp_-backto-kmg_" style="stroke:#181818;stroke-width:1.0;"/><polygon fill="none" points="591.77,887.83,601.0388,904.3856,609.1184,895.5132,591.77,887.83" style="stroke:#181818;stroke-width:1.0;"/></g><!--link bhm to bb_--><!--SRC=[dLLTRzCm57tlhx3oYDH9l2EaLZ2X8QID3LuOgkps9l6IEAdjQ53Wt_1F-6FSs4vgE-uwUAfyxhaVFZutxUYseWMGR0q73cKl2X0PeOemE90V2qAwaN3NTdnBLdskvP_V1MGcIiYsfagHRDNhLff4AaCS-RIm4Ur7rY3vjjIscH-u0rvJBqtJe22hQWeI1rKTLcX0W-lRBGoFQfAzpCXoYJyN5o-oCN-6swPKfkcQZi1IygBKKnpx4F9hCPTc3NalTh4mrx8zW5Bx7keQpA3TFeZVRAuebB96CIhWUdClRZLmiQxRRQMsPUrKw1GxauQ25fTGAwLxUR0vB3_Ngck5fW8-zXfxeQYkbpoJzuwAekcbkr3P-FJt8CGZo85s1z_qzOqXLReBNtyGAwIm5EM472oKmtBd2h1G0KiBXcVXy5DJ9yoz2ALXeJINDSV7DKOsZipHkuQNrzQDtNwo5tfdVCGObIdK3HQXxa8XEYeNebKIdIPJB5w8SJebPn7faiec3erZiZoEc57DffXbEjvXlq1qsfxF846ouvS73M5Mw3zSktaopT8t7_3fDskgd7bbyrHMR7IFwooCbRXoPlEYqnQ4Ep3F3nTW5byn1QAQx4TdXBTSU7w7MVpq0YMeoGsQyU85IXIw1jdW2maztw1EfcPCFYbJS-udO5YxbuQpkYMiJ_KtBApq24s3p7lnvhkW3KV45kvtpqcwrLHxEMe-J3wOjrMyTV-Q_Vm10aDPraF2A8dszkkYEUHMwahfVqaiOC2usF5YQbsfudG9gsgYRwEVcvJisM3FuVyILusy-ebV0RUg7Z2O215S8GkuLHdFYB0G6GryF5kZ7i_MbnvVsXPOno5ccRmpH6VhL0-mLlE1NGoe68YBFfWfgWbmZ-e3HGGqCMCG53-XU4Mo_5BotGx4r-NhuQv_0G00]--></g></svg>
